<?xml version="1.0" encoding="UTF-8" standalone="no"?>
<svg width="840px" height="840px" viewBox="0 0 840 840" version="1.1" xmlns="http://www.w3.org/2000/svg" xmlns:xlink="http://www.w3.org/1999/xlink">
    <!-- Generator: Sketch 3.8.3 (29802) - http://www.bohemiancoding.com/sketch -->
    <title>logo</title>
    <desc>Created with Sketch.</desc>
    <defs>
        <path d="M420,820 C640.9139,820 820,640.153907 820,419.510404 C820,198.8669 640.9139,20 420,20 C199.0861,20 20,198.8669 20,419.510404 C20,640.153907 199.0861,820 420,820 Z" id="path-1"></path>
        <mask id="mask-2" maskContentUnits="userSpaceOnUse" maskUnits="objectBoundingBox" x="-20" y="-20" width="840" height="840">
            <rect x="0" y="0" width="840" height="840" fill="white"></rect>
            <use xlink:href="#path-1" fill="black"></use>
        </mask>
    </defs>
    <g id="Page-1" stroke="none" stroke-width="1" fill="none" fill-rule="evenodd">
        <g id="Oval-1">
            <use fill="#034F84" fill-rule="evenodd" xlink:href="#path-1"></use>
            <use stroke="#9B9B9B" mask="url(#mask-2)" stroke-width="40" xlink:href="#path-1"></use>
        </g>
        <g id="Group" transform="translate(99.000000, 141.000000)">
            <polygon id="Triangle-5" fill="#D0D7DD" points="642.952136 162.807617 456.325975 159 321.606445 649.115234"></polygon>
            <polygon id="Triangle-5" fill="#FFFFFF" points="551 -5.68434189e-14 322 -5.68434189e-14 436.5 198.72998"></polygon>
            <polygon id="Triangle-5" fill="#FDFFFF" points="322 0 93 0 207.5 201.230469"></polygon>
            <polygon id="Triangle-3" fill="#E9F0F6" points="93 0 186 163 0 163"></polygon>
            <polygon id="Triangle-3" fill="#E9F0F6" points="550 0 643 163 457 163"></polygon>
            <polygon id="Triangle-2" fill="#E9F0F6" points="321.5 0 457 163 186 163"></polygon>
            <polygon id="Triangle-5" fill="#D0D7DD" points="191.243164 163 319.835449 645.639648 2.84217094e-14 163"></polygon>
            <polygon id="Triangle-1" fill="#DCE3E9" transform="translate(321.500000, 405.500000) scale(1, -1) translate(-321.500000, -405.500000) " points="321.5 163 457 648 186 648"></polygon>
        </g>
        <g id="Group-2" transform="translate(225.000000, 267.000000)">
            <path d="M2.84217094e-14,227.039683 C1.25647033,228.759051 20.0878518,184.244102 42.0632402,127.607163 L52.0223745,101.93959 C60.8126893,79.284404 82.5844327,47.7479625 93.8427473,37.6234912 L93.8427473,37.6234912 L93.8427473,37.6234912 C97.7972474,32.4215142 109.336485,23.9496184 119.704956,18.8863765 C119.704956,18.8863765 117.230292,19.8434113 119.704956,18.8863765 C121.055475,18.3640856 131.485417,14.9294779 131.485417,14.9294779 C146.47984,9.95157058 171.434141,5.4359789 187.209005,4.84412451 L263.014265,2 L289,21.8492753 L288.885479,27.1132783 C288.634313,38.6582256 283.127568,55.7369414 276.593666,65.2482369 L242.803087,114.436636 C236.265673,123.953045 231.426128,141.020948 231.992748,152.540277 L233.795819,189.196569 C234.870501,211.044767 239.260312,246.129425 243.601135,267.562321 L245.81243,278.48063 C251.841134,308.247465 258.462654,356.93666 260.603072,387.246045 L263.014265,421.389745 L195.880153,523 L2.84217094e-14,227.039683 L2.84217094e-14,227.039683 Z" id="Seal-body" fill="#979797"></path>
            <path d="M54,227.039683 C54.9956114,228.759051 70.2746525,183.081997 88.1259497,125.019548 L94.9052839,102.969344 C102.045472,79.7454403 120.862306,46.1324971 128.359824,37.6234912 L128.359824,37.6234912 L128.359824,37.6234912 C131.493321,32.4215142 141.909029,23.1385974 148.852716,18.8863765 C148.852716,18.8863765 146.891823,19.8434113 148.852716,18.8863765 C149.92285,18.3640856 153.320643,16.97839 153.320643,16.97839 C167.889877,10.8688998 192.487768,5.31071737 208.265532,4.5636546 L262.409227,2 L288.472656,18.8863773 L288.472656,28.8072481 C288.472656,40.3488009 283.497742,57.6291389 277.354555,67.4140297 L248.132723,113.958667 C241.992365,123.739051 237.379181,141.020948 237.828745,152.555188 L239.256212,189.179064 C240.108154,211.03693 243.60801,246.261027 247.073866,267.857435 L248.711777,278.063573 C253.525811,308.060742 258.804238,356.966158 260.501296,387.293737 L262.409227,421.389745 L203.165039,511.764648 L54,227.039683 L54,227.039683 Z" id="Seal-body-Copy" fill="#A3A3A3"></path>
            <path d="M263.023804,1.99572753 L277.783265,26.1981889 C279.048325,28.2726256 281.527864,28.6217261 283.321651,26.9777605 L289,21.773682 L289,5.49441934 C289,2.45993533 286.544525,0.188651935 283.522858,0.420803854 L263.023804,1.99572753 Z" id="Path-6" fill="#4A4A4A"></path>
            <circle id="Oval-2" fill="#FFFFFF" cx="184.5" cy="40.5" r="9.5"></circle>
        </g>
    </g>
</svg>